<svg width="32" height="32" viewBox="0 0 32 32" fill="none" xmlns="http://www.w3.org/2000/svg">
<path d="M22.7323 27.04C21.4256 28.3067 19.9989 28.1067 18.6256 27.5067C17.1723 26.8933 15.8389 26.8667 14.3056 27.5067C12.3856 28.3333 11.3723 28.0933 10.2256 27.04C3.71892 20.3333 4.67892 10.12 12.0656 9.74667C13.8656 9.84 15.1189 10.7333 16.1723 10.8133C17.7456 10.4933 19.2522 9.57333 20.9323 9.69333C22.9456 9.85333 24.4656 10.6533 25.4656 12.0933C21.3056 14.5867 22.2922 20.0667 26.1056 21.6C25.3456 23.6 24.3589 25.5867 22.7189 27.0533L22.7323 27.04ZM16.0389 9.66667C15.8389 6.69333 18.2523 4.24 21.0256 4C21.4123 7.44 17.9056 10 16.0389 9.66667Z" fill="black"/>
</svg>
