<svg width="18" height="18" viewBox="0 0 18 18" fill="none" xmlns="http://www.w3.org/2000/svg">
<g clip-path="url(#clip0_2919_1875)">
<path d="M5.25 18C6.07843 18 6.75 17.3284 6.75 16.5C6.75 15.6716 6.07843 15 5.25 15C4.42157 15 3.75 15.6716 3.75 16.5C3.75 17.3284 4.42157 18 5.25 18Z" fill="black"/>
<path d="M12.75 18C13.5784 18 14.25 17.3284 14.25 16.5C14.25 15.6716 13.5784 15 12.75 15C11.9216 15 11.25 15.6716 11.25 16.5C11.25 17.3284 11.9216 18 12.75 18Z" fill="black"/>
<path d="M17.238 4.5135C16.7101 4.00867 16.0033 3.73406 15.273 3.75H4.2405L4.04325 2.2035C3.97163 1.59652 3.67978 1.03692 3.22305 0.630778C2.76632 0.224639 2.17644 0.000196407 1.56525 0L1.125 0C0.826631 0 0.540483 0.118526 0.329505 0.329505C0.118526 0.540483 0 0.826631 0 1.125C0 1.42337 0.118526 1.70952 0.329505 1.9205C0.540483 2.13147 0.826631 2.25 1.125 2.25H1.56525C1.62661 2.25066 1.68554 2.27401 1.73069 2.31556C1.77584 2.35711 1.80401 2.41391 1.80975 2.475L2.93475 11.2943C3.00571 11.9017 3.29728 12.4619 3.7541 12.8686C4.21092 13.2752 4.80117 13.4999 5.41275 13.5H13.0043C13.9073 13.4995 14.7852 13.2026 15.5033 12.655C16.2213 12.1074 16.7399 11.3392 16.9793 10.4685L17.9138 7.07025C18.0383 6.62247 18.0414 6.14959 17.9226 5.70023C17.8039 5.25087 17.5676 4.84125 17.238 4.5135ZM14.8125 9.87225C14.7027 10.2677 14.4665 10.6164 14.1401 10.8652C13.8136 11.1139 13.4147 11.2491 13.0043 11.25H5.41275C5.35143 11.2495 5.29249 11.2262 5.24743 11.1846C5.20236 11.143 5.1744 11.0861 5.169 11.025L4.52775 6H15.3855C15.4434 5.99957 15.5007 6.01256 15.5527 6.03796C15.6048 6.06336 15.6503 6.10047 15.6856 6.14639C15.7209 6.19231 15.7451 6.24579 15.7563 6.30263C15.7674 6.35947 15.7653 6.41813 15.75 6.474L14.8125 9.87225Z" fill="black"/>
</g>
<defs>
<clipPath id="clip0_2919_1875">
<rect width="18" height="18" fill="white"/>
</clipPath>
</defs>
</svg>
