<svg width="36" height="36" viewBox="0 0 36 36" fill="none" xmlns="http://www.w3.org/2000/svg">
<circle cx="18" cy="18" r="18" fill="#4B4B4B"/>
<path fill-rule="evenodd" clip-rule="evenodd" d="M18.7805 9.28906C14.1636 9.28906 10.4492 13.0034 10.4492 17.6204C10.4492 21.3 12.8445 24.4243 16.1423 25.5351C16.5588 25.6045 16.6977 25.3615 16.6977 25.1185C16.6977 24.9102 16.6977 24.3895 16.6977 23.6953C14.3719 24.216 13.8859 22.5844 13.8859 22.5844C13.504 21.6124 12.9486 21.3694 12.9486 21.3694C12.1849 20.8487 13.018 20.8487 13.018 20.8487C13.8512 20.9182 14.3024 21.7166 14.3024 21.7166C15.0314 23.001 16.2464 22.6191 16.7324 22.4109C16.8018 21.8554 17.0101 21.5083 17.2531 21.3C15.4133 21.0917 13.4693 20.3627 13.4693 17.1691C13.4693 16.2665 13.7817 15.5028 14.3372 14.9474C14.2677 14.7391 13.9553 13.906 14.4066 12.7257C14.4066 12.7257 15.1009 12.5174 16.6977 13.5936C17.3572 13.42 18.0862 13.3159 18.7805 13.3159C19.4748 13.3159 20.2038 13.42 20.8633 13.5936C22.4602 12.5174 23.1544 12.7257 23.1544 12.7257C23.6057 13.8713 23.328 14.7044 23.2239 14.9474C23.7446 15.5375 24.0917 16.2665 24.0917 17.1691C24.0917 20.3627 22.1477 21.057 20.2732 21.2653C20.5856 21.5083 20.8286 22.029 20.8286 22.7927C20.8286 23.9035 20.8286 24.8061 20.8286 25.0838C20.8286 25.2921 20.9675 25.5698 21.4188 25.5004C24.7166 24.4243 27.1118 21.3 27.1118 17.6204C27.1118 13.0034 23.3974 9.28906 18.7805 9.28906Z" fill="white"/>
</svg>
