<svg width="32" height="32" viewBox="0 0 32 32" fill="none" xmlns="http://www.w3.org/2000/svg">
<path d="M29.0753 13.39H28.0013V13.3346H16.0013V18.668H23.5366C22.4373 21.7726 19.4833 24.0013 16.0013 24.0013C11.5833 24.0013 8.0013 20.4193 8.0013 16.0013C8.0013 11.5833 11.5833 8.0013 16.0013 8.0013C18.0406 8.0013 19.896 8.77064 21.3086 10.0273L25.08 6.25597C22.6986 4.03664 19.5133 2.66797 16.0013 2.66797C8.63797 2.66797 2.66797 8.63797 2.66797 16.0013C2.66797 23.3646 8.63797 29.3346 16.0013 29.3346C23.3646 29.3346 29.3346 23.3646 29.3346 16.0013C29.3346 15.1073 29.2426 14.2346 29.0753 13.39Z" fill="#FFC107"/>
<path d="M4.20312 9.7953L8.58379 13.008C9.76913 10.0733 12.6398 8.0013 15.9991 8.0013C18.0385 8.0013 19.8938 8.77064 21.3065 10.0273L25.0778 6.25597C22.6965 4.03664 19.5111 2.66797 15.9991 2.66797C10.8778 2.66797 6.43646 5.5593 4.20312 9.7953Z" fill="#FF3D00"/>
<path d="M15.9989 29.3338C19.4429 29.3338 22.5722 28.0158 24.9382 25.8725L20.8116 22.3805C19.4279 23.4327 17.7372 24.0018 15.9989 24.0005C12.5309 24.0005 9.58624 21.7891 8.47691 18.7031L4.12891 22.0531C6.33557 26.3711 10.8169 29.3338 15.9989 29.3338Z" fill="#4CAF50"/>
<path d="M29.074 13.3874H28V13.332H16V18.6654H23.5353C23.0095 20.143 22.0622 21.4341 20.8107 22.3794L20.8127 22.378L24.9393 25.87C24.6473 26.1354 29.3333 22.6654 29.3333 15.9987C29.3333 15.1047 29.2413 14.232 29.074 13.3874Z" fill="#1976D2"/>
</svg>
