<svg width="18" height="18" viewBox="0 0 18 18" fill="none" xmlns="http://www.w3.org/2000/svg">
<g clip-path="url(#clip0_2919_1894)">
<path d="M13.7259 0.00085783H4.27586C3.14206 0.00085783 0.802564 -0.80087 0.000846505 0.000847638C-0.800871 0.802565 0.000861049 3.14206 0.000861049 4.27586V13.7259C0.000861049 14.8597 -0.800857 17.1991 0.000861049 18.0009C0.802579 18.8026 3.14206 18.0009 4.27586 18.0009H13.7259C14.8597 18.0009 17.1991 18.8026 18.0009 18.0009C18.8026 17.1991 18.0009 14.8597 18.0009 13.7259V4.27586C18.0009 3.14206 18.8026 0.802576 18.0009 0.000858694C17.1991 -0.800859 14.8597 0.00085783 13.7259 0.00085783ZM9.97961 13.3884C9.97961 13.5121 9.92336 13.5684 9.81086 13.5684H8.19086C8.07836 13.5684 8.02211 13.5121 8.02211 13.3884V7.36961C8.02211 7.24586 8.07836 7.18961 8.19086 7.18961H9.81086C9.92336 7.18961 9.97961 7.24586 9.97961 7.36961V13.3884ZM9.01211 6.49211C8.28086 6.49211 7.86461 6.12086 7.86461 5.45711C7.86461 4.81586 8.28086 4.43336 9.01211 4.43336C9.72086 4.43336 10.1371 4.81586 10.1371 5.45711C10.1371 6.09836 9.72086 6.49211 9.01211 6.49211Z" fill="#685FF1"/>
</g>
<defs>
<clipPath id="clip0_2919_1894">
<rect width="18" height="18" fill="white"/>
</clipPath>
</defs>
</svg>
