<svg width="36" height="36" viewBox="0 0 36 36" fill="none" xmlns="http://www.w3.org/2000/svg">
<circle cx="18" cy="18" r="18" fill="#4B4B4B"/>
<path d="M18.0026 10.8585C20.3281 10.8585 20.6035 10.8672 21.5222 10.9091C22.0745 10.9158 22.6216 11.0172 23.1397 11.2089C23.5154 11.3538 23.8566 11.5758 24.1413 11.8605C24.426 12.1452 24.648 12.4864 24.7929 12.8621C24.9846 13.3802 25.086 13.9273 25.0927 14.4796C25.1342 15.3983 25.1433 15.6737 25.1433 17.9992C25.1433 20.3246 25.1346 20.6 25.0927 21.5187C25.086 22.071 24.9846 22.6181 24.7929 23.1362C24.648 23.5119 24.426 23.8531 24.1413 24.1378C23.8566 24.4225 23.5154 24.6445 23.1397 24.7894C22.6216 24.9811 22.0745 25.0825 21.5222 25.0892C20.6039 25.1307 20.3285 25.1398 18.0026 25.1398C15.6767 25.1398 15.4014 25.1311 14.4831 25.0892C13.9308 25.0825 13.3837 24.9811 12.8656 24.7894C12.4899 24.6445 12.1487 24.4225 11.864 24.1378C11.5793 23.8531 11.3573 23.5119 11.2124 23.1362C11.0207 22.6181 10.9193 22.071 10.9126 21.5187C10.8711 20.6 10.862 20.3246 10.862 17.9992C10.862 15.6737 10.8707 15.3983 10.9126 14.4796C10.9193 13.9273 11.0207 13.3802 11.2124 12.8621C11.3573 12.4864 11.5793 12.1452 11.864 11.8605C12.1487 11.5758 12.4899 11.3538 12.8656 11.2089C13.3837 11.0172 13.9308 10.9158 14.4831 10.9091C15.4018 10.8676 15.6772 10.8585 18.0026 10.8585ZM18.0026 9.28906C15.6386 9.28906 15.3408 9.29902 14.4118 9.34132C13.6889 9.3557 12.9737 9.49257 12.2966 9.74611C11.7157 9.96496 11.1896 10.3079 10.755 10.751C10.3114 11.1859 9.96817 11.7123 9.74919 12.2935C9.49565 12.9706 9.35878 13.6858 9.3444 14.4087C9.30292 15.3369 9.29297 15.6347 9.29297 17.9987C9.29297 20.3628 9.30292 20.6606 9.34523 21.5896C9.35961 22.3125 9.49648 23.0277 9.75002 23.7048C9.96876 24.286 10.3117 24.8124 10.755 25.2473C11.1898 25.6905 11.7162 26.0335 12.2974 26.2522C12.9745 26.5057 13.6897 26.6426 14.4126 26.657C15.3416 26.6985 15.6382 26.7092 18.0035 26.7092C20.3688 26.7092 20.6653 26.6993 21.5944 26.657C22.3172 26.6426 23.0324 26.5057 23.7096 26.2522C24.288 26.028 24.8132 25.6856 25.2517 25.2468C25.6902 24.808 26.0323 24.2825 26.2561 23.704C26.5096 23.0269 26.6465 22.3117 26.6609 21.5888C26.7024 20.6606 26.7123 20.3628 26.7123 17.9987C26.7123 15.6347 26.7024 15.3369 26.6601 14.4079C26.6457 13.685 26.5088 12.9698 26.2553 12.2927C26.0365 11.7115 25.6936 11.1851 25.2503 10.7502C24.8154 10.307 24.2891 9.96402 23.7079 9.74528C23.0308 9.49174 22.3156 9.35487 21.5927 9.34049C20.6645 9.29902 20.3667 9.28906 18.0026 9.28906Z" fill="white"/>
<path d="M18.0039 13.5312C17.1193 13.5312 16.2545 13.7936 15.519 14.285C14.7835 14.7765 14.2102 15.475 13.8717 16.2923C13.5332 17.1095 13.4446 18.0088 13.6172 18.8764C13.7898 19.744 14.2157 20.541 14.8413 21.1665C15.4668 21.792 16.2637 22.218 17.1313 22.3906C17.9989 22.5631 18.8982 22.4746 19.7155 22.136C20.5327 21.7975 21.2313 21.2243 21.7227 20.4887C22.2142 19.7532 22.4765 18.8885 22.4765 18.0039C22.4765 16.8177 22.0053 15.68 21.1665 14.8413C20.3277 14.0025 19.1901 13.5312 18.0039 13.5312ZM18.0039 20.9071C17.4297 20.9071 16.8684 20.7368 16.3909 20.4178C15.9135 20.0988 15.5414 19.6454 15.3216 19.1149C15.1019 18.5844 15.0444 18.0007 15.1564 17.4375C15.2685 16.8743 15.545 16.357 15.951 15.951C16.357 15.545 16.8743 15.2685 17.4375 15.1564C18.0007 15.0444 18.5844 15.1019 19.1149 15.3216C19.6454 15.5414 20.0988 15.9135 20.4178 16.3909C20.7368 16.8684 20.9071 17.4297 20.9071 18.0039C20.9071 18.7739 20.6012 19.5123 20.0568 20.0568C19.5123 20.6012 18.7739 20.9071 18.0039 20.9071Z" fill="white"/>
<path d="M22.6506 14.395C23.2279 14.395 23.6958 13.9271 23.6958 13.3498C23.6958 12.7726 23.2279 12.3047 22.6506 12.3047C22.0734 12.3047 21.6055 12.7726 21.6055 13.3498C21.6055 13.9271 22.0734 14.395 22.6506 14.395Z" fill="white"/>
</svg>
