<svg width="20" height="20" viewBox="0 0 20 20" fill="none" xmlns="http://www.w3.org/2000/svg">
<path d="M2.5 5.83464C2.5 5.39261 2.67559 4.96868 2.98816 4.65612C3.30072 4.34356 3.72464 4.16797 4.16667 4.16797H15.8333C16.2754 4.16797 16.6993 4.34356 17.0118 4.65612C17.3244 4.96868 17.5 5.39261 17.5 5.83464V14.168C17.5 14.61 17.3244 15.0339 17.0118 15.3465C16.6993 15.659 16.2754 15.8346 15.8333 15.8346H4.16667C3.72464 15.8346 3.30072 15.659 2.98816 15.3465C2.67559 15.0339 2.5 14.61 2.5 14.168V5.83464Z" stroke="#B9B3B3" stroke-width="1.2" stroke-linecap="round" stroke-linejoin="round"/>
<path d="M2.5 5.83594L10 10.8359L17.5 5.83594" stroke="#B9B3B3" stroke-width="1.2" stroke-linecap="round" stroke-linejoin="round"/>
</svg>
