<svg width="36" height="36" viewBox="0 0 36 36" fill="none" xmlns="http://www.w3.org/2000/svg">
<path d="M28.4766 27H16.4766C15.5766 27 14.9766 26.4 14.9766 25.5C14.9766 24.6 15.5766 24 16.4766 24H28.4766C29.3766 24 29.9766 24.6 29.9766 25.5C29.9766 26.4 29.3766 27 28.4766 27Z" fill="#2D2F31"/>
<path d="M28.4766 19.5H7.47656C6.57656 19.5 5.97656 18.9 5.97656 18C5.97656 17.1 6.57656 16.5 7.47656 16.5H28.4766C29.3766 16.5 29.9766 17.1 29.9766 18C29.9766 18.9 29.3766 19.5 28.4766 19.5Z" fill="#2D2F31"/>
<path d="M19.4766 12H7.47656C6.57656 12 5.97656 11.4 5.97656 10.5C5.97656 9.6 6.57656 9 7.47656 9H19.4766C20.3766 9 20.9766 9.6 20.9766 10.5C20.9766 11.4 20.3766 12 19.4766 12Z" fill="#2D2F31"/>
</svg>
