<svg width="17" height="16" viewBox="0 0 17 16" fill="none" xmlns="http://www.w3.org/2000/svg">
<path fill-rule="evenodd" clip-rule="evenodd" d="M2.77622 0.704049C3.79039 -0.304284 5.46039 -0.125117 6.30955 1.00988L7.36122 2.41322C8.05289 3.33655 7.99122 4.62655 7.17039 5.44238L6.97205 5.64072C6.94966 5.72399 6.94737 5.81139 6.96539 5.89572C7.01789 6.23572 7.30205 6.95572 8.49205 8.13905C9.68205 9.32238 10.4071 9.60572 10.7521 9.65905C10.8389 9.67752 10.9289 9.67495 11.0146 9.65155L11.3546 9.31322C12.0846 8.58822 13.2046 8.45238 14.1079 8.94322L15.6996 9.80988C17.0637 10.5499 17.4079 12.4032 16.2912 13.5141L15.1071 14.6907C14.7337 15.0616 14.2321 15.3707 13.6204 15.4282C12.1121 15.5691 8.59789 15.3891 4.90372 11.7165C1.45622 8.28822 0.794554 5.29822 0.710387 3.82488C0.66872 3.07988 1.02039 2.44988 1.46872 2.00488L2.77622 0.704049ZM5.30955 1.75905C4.88705 1.19488 4.10039 1.14988 3.65705 1.59072L2.34872 2.89072C2.07372 3.16405 1.94205 3.46572 1.95872 3.75405C2.02539 4.92488 2.55872 7.62238 5.78539 10.8307C9.17039 14.1957 12.2962 14.2966 13.5046 14.1832C13.7512 14.1607 13.9962 14.0324 14.2254 13.8049L15.4087 12.6274C15.8904 12.149 15.7846 11.2774 15.1029 10.9074L13.5112 10.0415C13.0712 9.80322 12.5562 9.88155 12.2362 10.1999L11.8571 10.5774L11.4154 10.1341C11.8571 10.5774 11.8562 10.5782 11.8554 10.5782L11.8546 10.5799L11.8521 10.5824L11.8462 10.5874L11.8337 10.599C11.7983 10.6314 11.7604 10.6609 11.7204 10.6874C11.6537 10.7315 11.5654 10.7807 11.4546 10.8215C11.2296 10.9057 10.9312 10.9507 10.5629 10.894C9.84039 10.7832 8.88289 10.2907 7.61039 9.02572C6.33872 7.76072 5.84205 6.80905 5.73039 6.08738C5.67289 5.71905 5.71872 5.42072 5.80372 5.19572C5.85085 5.06927 5.9178 4.95113 6.00205 4.84572L6.02872 4.81655L6.04039 4.80405L6.04539 4.79905L6.04789 4.79655L6.04955 4.79488L6.28955 4.55655C6.64622 4.20072 6.69622 3.61155 6.36039 3.16238L5.30955 1.75905Z" fill="#B9B3B3"/>
</svg>
