<svg width="36" height="36" viewBox="0 0 36 36" fill="none" xmlns="http://www.w3.org/2000/svg">
<circle cx="18" cy="18" r="18" fill="#4B4B4B"/>
<path d="M25.9837 14.1281C25.4449 14.3675 24.8762 14.5172 24.2776 14.607C24.8762 14.2478 25.3551 13.6792 25.5646 12.9908C24.996 13.32 24.3674 13.5594 23.679 13.7091C23.1403 13.1404 22.3621 12.7812 21.5241 12.7812C19.9078 12.7812 18.5909 14.0982 18.5909 15.7144C18.5909 15.9538 18.6208 16.1634 18.6807 16.3729C16.2564 16.2531 14.0715 15.0859 12.6049 13.2901C12.3654 13.739 12.2158 14.2179 12.2158 14.7566C12.2158 15.7743 12.7246 16.6722 13.5327 17.2109C13.0538 17.181 12.6049 17.0613 12.1859 16.8518V16.8817C12.1859 18.3183 13.2035 19.5155 14.5503 19.7849C14.3109 19.8448 14.0415 19.8747 13.7722 19.8747C13.5926 19.8747 13.3831 19.8448 13.2035 19.8148C13.5926 20.9821 14.6701 21.8501 15.9571 21.8501C14.9394 22.6283 13.6824 23.1072 12.3056 23.1072C12.0661 23.1072 11.8267 23.1072 11.6172 23.0772C12.9341 23.9153 14.4606 24.3942 16.1366 24.3942C21.554 24.3942 24.5171 19.9046 24.5171 16.0137C24.5171 15.894 24.5171 15.7443 24.5171 15.6246C25.0858 15.2355 25.5946 14.7267 25.9837 14.1281Z" fill="white"/>
</svg>
